<?xml version="1.0" encoding="utf-8"?>
<!-- Generator: Adobe Illustrator 26.0.3, SVG Export Plug-In . SVG Version: 6.00 Build 0)  -->
<svg version="1.1" id="Capa_1" xmlns="http://www.w3.org/2000/svg" xmlns:xlink="http://www.w3.org/1999/xlink" x="0px" y="0px"
	 viewBox="0 0 120 100" style="enable-background:new 0 0 120 100;" xml:space="preserve">
<style type="text/css">
	.st0{fill:#1E83E9;}
	.st1{fill:#FFFFFF;}
	.st2{fill:#FF0000;}
</style>
<circle class="st0" cx="60" cy="43" r="34"/>
<polygon class="st1" points="77.8,56.9 65.5,72 49.7,46.6 33.9,21.1 62,31.5 90.1,41.8 "/>
<g>
	<g>
		<path class="st2" d="M22.3,83.9v10.6h-2.4v-4.8l0.1-3.2h0l-2.6,8.1h-2.2l-2.6-8.1h0l0.1,3.2v4.8h-2.4V83.9H14l1.7,5.4l0.6,2.2h0
			l0.6-2.2l1.6-5.4H22.3z"/>
		<path class="st2" d="M34.3,94.5h-2.8l-0.7-2.4h-3.6l-0.8,2.4h-2.8l3.7-10.6h3.3L34.3,94.5z M27.6,90.2h2.6l-1.3-4.3L27.6,90.2z"/>
		<path class="st2" d="M39.6,83.7c1,0,1.8,0.2,2.6,0.5c0.8,0.3,1.4,0.8,2,1.3l-1.3,1.8c-0.5-0.5-1-0.8-1.5-1.1
			c-0.5-0.2-1.1-0.4-1.8-0.4c-0.4,0-0.7,0-1,0.1c-0.2,0.1-0.4,0.2-0.5,0.4c-0.1,0.2-0.2,0.3-0.2,0.5c0,0.2,0.1,0.4,0.3,0.6
			s0.5,0.3,1,0.4l1.8,0.4c1.1,0.2,1.8,0.6,2.3,1.1s0.7,1.1,0.7,1.9c0,0.7-0.2,1.4-0.6,1.9c-0.4,0.5-0.9,0.9-1.6,1.2
			c-0.7,0.3-1.4,0.4-2.3,0.4c-0.7,0-1.4-0.1-2-0.2c-0.6-0.2-1.2-0.4-1.7-0.7c-0.5-0.3-0.9-0.6-1.3-1l1.3-1.8c0.3,0.3,0.6,0.6,1,0.8
			c0.4,0.2,0.8,0.4,1.3,0.6c0.5,0.1,0.9,0.2,1.4,0.2c0.4,0,0.7,0,0.9-0.1c0.3-0.1,0.4-0.2,0.6-0.3c0.1-0.1,0.2-0.3,0.2-0.5
			c0-0.2-0.1-0.4-0.2-0.6c-0.2-0.2-0.5-0.3-0.9-0.4l-2-0.4c-0.6-0.1-1.1-0.3-1.6-0.6c-0.5-0.2-0.8-0.5-1.1-0.9
			c-0.3-0.4-0.4-0.9-0.4-1.5c0-0.7,0.2-1.2,0.5-1.8c0.4-0.5,0.9-0.9,1.6-1.2C37.9,83.9,38.7,83.7,39.6,83.7z"/>
		<path class="st2" d="M54.7,83.9V86h-3.4v8.4h-2.8V86h-3.5v-2.1H54.7z"/>
		<path class="st2" d="M56.3,94.5V83.9h8.2V86H59v2.1h4.4v2H59v2.2h5.7v2.1H56.3z"/>
		<path class="st2" d="M69.1,92.3h5.3v2.1h-8V83.9h2.8V92.3z"/>
		<path class="st2" d="M84.7,83.7c1,0,1.8,0.2,2.6,0.5c0.8,0.3,1.4,0.8,2,1.3l-1.3,1.8c-0.5-0.5-1-0.8-1.5-1.1
			c-0.5-0.2-1.1-0.4-1.8-0.4c-0.4,0-0.7,0-1,0.1s-0.4,0.2-0.5,0.4c-0.1,0.2-0.2,0.3-0.2,0.5c0,0.2,0.1,0.4,0.3,0.6s0.5,0.3,1,0.4
			l1.8,0.4c1.1,0.2,1.8,0.6,2.3,1.1c0.5,0.5,0.7,1.1,0.7,1.9c0,0.7-0.2,1.4-0.6,1.9c-0.4,0.5-0.9,0.9-1.6,1.2
			c-0.7,0.3-1.4,0.4-2.3,0.4c-0.7,0-1.4-0.1-2-0.2C82,94.2,81.5,94,81,93.7c-0.5-0.3-0.9-0.6-1.3-1l1.3-1.8c0.3,0.3,0.6,0.6,1,0.8
			c0.4,0.2,0.8,0.4,1.3,0.6s0.9,0.2,1.4,0.2c0.4,0,0.7,0,0.9-0.1c0.2-0.1,0.4-0.2,0.6-0.3s0.2-0.3,0.2-0.5c0-0.2-0.1-0.4-0.2-0.6
			c-0.2-0.2-0.5-0.3-0.9-0.4l-2-0.4c-0.6-0.1-1.1-0.3-1.6-0.6c-0.5-0.2-0.8-0.5-1.1-0.9c-0.3-0.4-0.4-0.9-0.4-1.5
			c0-0.7,0.2-1.2,0.5-1.8c0.4-0.5,0.9-0.9,1.6-1.2C82.9,83.9,83.8,83.7,84.7,83.7z"/>
		<path class="st2" d="M100.5,94.5h-2.8l-0.7-2.4h-3.6l-0.8,2.4h-2.8l3.7-10.6h3.3L100.5,94.5z M93.8,90.2h2.6l-1.3-4.3L93.8,90.2z"
			/>
		<path class="st2" d="M111.1,91.4c-0.2,0.7-0.5,1.3-1,1.8s-1,0.8-1.6,1c-0.6,0.2-1.3,0.3-2,0.3c-1.1,0-2-0.2-2.8-0.6
			c-0.8-0.4-1.4-1.1-1.8-1.9c-0.4-0.8-0.6-1.8-0.6-2.9c0-1.1,0.2-2.1,0.6-2.9s1-1.4,1.8-1.9c0.8-0.4,1.7-0.6,2.8-0.6
			c0.7,0,1.4,0.1,2,0.3c0.6,0.2,1.1,0.5,1.6,1c0.4,0.4,0.7,1,0.9,1.6l-2.4,1c-0.1-0.7-0.4-1.1-0.7-1.4c-0.3-0.2-0.8-0.4-1.3-0.4
			c-0.5,0-0.9,0.1-1.3,0.4c-0.4,0.2-0.7,0.6-0.8,1.1c-0.2,0.5-0.3,1.1-0.3,1.8c0,0.7,0.1,1.3,0.3,1.8c0.2,0.5,0.5,0.9,0.8,1.1
			c0.4,0.2,0.8,0.4,1.4,0.4c0.5,0,0.9-0.1,1.3-0.4s0.6-0.7,0.7-1.3L111.1,91.4z"/>
	</g>
</g>
<rect x="37.4" y="3.5" transform="matrix(0.7071 0.7071 -0.7071 0.7071 27.7417 -20.2778)" class="st1" width="1.8" height="39.6"/>
<rect x="43.2" y="-1.6" transform="matrix(0.7275 0.6861 -0.6861 0.7275 29.5795 -23.2805)" class="st1" width="1.8" height="54.4"/>
<rect x="46.7" y="-1.4" transform="matrix(0.7275 0.6861 -0.6861 0.7275 33.6206 -24.4556)" class="st1" width="1.8" height="62.9"/>
<rect x="50.4" y="1.4" transform="matrix(0.7275 0.6861 -0.6861 0.7275 38.2445 -25.5979)" class="st1" width="1.8" height="67.9"/>
<rect x="54.9" y="4.2" transform="matrix(0.7275 0.6861 -0.6861 0.7275 41.8582 -27.7251)" class="st1" width="1.8" height="69.3"/>
<rect x="58.9" y="8.2" transform="matrix(0.7275 0.6861 -0.6861 0.7275 45.6926 -29.3796)" class="st1" width="1.8" height="69.3"/>
<rect x="67.9" y="15.2" transform="matrix(0.7412 0.6713 -0.6713 0.7412 51.2664 -33.3095)" class="st1" width="1.8" height="69.3"/>
<rect x="72.9" y="19.2" transform="matrix(0.7591 0.651 -0.651 0.7591 52.8299 -35.0946)" class="st1" width="1.8" height="69.3"/>
<rect x="76.2" y="27.6" transform="matrix(0.7591 0.651 -0.651 0.7591 56.3458 -36.2066)" class="st1" width="1.8" height="60.9"/>
<rect x="38.3" y="21.9" transform="matrix(0.7071 0.7071 -0.7071 0.7071 28.9023 -19.8798)" class="st0" width="0.4" height="6"/>
<rect x="41.1" y="23" transform="matrix(0.7071 0.7071 -0.7071 0.7071 31.2721 -21.2297)" class="st0" width="0.4" height="8.3"/>
<rect x="45.6" y="23" transform="matrix(0.7275 0.6861 -0.6861 0.7275 33.5149 -23.0645)" class="st0" width="0.4" height="15.4"/>
<rect x="54.6" y="27.1" transform="matrix(0.7275 0.6861 -0.6861 0.7275 40.7146 -27.3061)" class="st0" width="0.4" height="21"/>
<rect x="58.5" y="29.6" transform="matrix(0.7275 0.6861 -0.6861 0.7275 44.5212 -28.9476)" class="st0" width="0.4" height="23.9"/>
<rect x="63.2" y="30.4" transform="matrix(0.7412 0.6713 -0.6713 0.7412 46.4681 -30.9653)" class="st0" width="0.4" height="28.8"/>
<rect x="68" y="32.9" transform="matrix(0.7412 0.6713 -0.6713 0.7412 50.6374 -33.0211)" class="st0" width="0.4" height="32.5"/>
<rect x="72.4" y="34.2" transform="matrix(0.7412 0.6713 -0.6713 0.7412 54.0765 -35.1171)" class="st0" width="0.4" height="36.8"/>
<rect x="76.4" y="35.8" transform="matrix(0.7412 0.6713 -0.6713 0.7412 57.1817 -37.026)" class="st0" width="0.4" height="39.7"/>
<rect x="49.6" y="24.1" transform="matrix(0.7275 0.6861 -0.6861 0.7275 37.2938 -24.6931)" class="st0" width="0.4" height="21"/>
<rect x="62.5" y="12.5" transform="matrix(0.7412 0.6713 -0.6713 0.7412 48.0519 -30.3458)" class="st1" width="1.8" height="69.3"/>
</svg>
