<?xml version="1.0" encoding="utf-8"?>
<!-- Generator: Adobe Illustrator 26.1.0, SVG Export Plug-In . SVG Version: 6.00 Build 0)  -->
<svg version="1.1" xmlns="http://www.w3.org/2000/svg" xmlns:xlink="http://www.w3.org/1999/xlink" x="0px" y="0px"
	 viewBox="0 0 128 128" style="enable-background:new 0 0 128 128;" xml:space="preserve">
<style type="text/css">
	.st0{display:none;}
	.st1{display:inline;}
	.st2{fill:none;stroke:#49A5DD;stroke-miterlimit:10;}
	.st3{fill:#0575E6;}
</style>
<g id="Capa_1" class="st0">
	<g id="Capa_1_00000093893345675018411590000011886360181485103756_" class="st1">
		<g>
			<rect x="4" y="4" class="st2" width="120" height="120"/>
			<line class="st2" x1="4" y1="104" x2="124" y2="104"/>
			<line class="st2" x1="4" y1="84" x2="124" y2="84"/>
			<line class="st2" x1="4" y1="64" x2="124" y2="64"/>
			<line class="st2" x1="4" y1="44" x2="124" y2="44"/>
			<line class="st2" x1="4" y1="24" x2="124" y2="24"/>
			<line class="st2" x1="104" y1="4" x2="104" y2="124"/>
			<line class="st2" x1="84" y1="4" x2="84" y2="124"/>
			<line class="st2" x1="64" y1="4" x2="64" y2="124"/>
			<line class="st2" x1="44" y1="4" x2="44" y2="124"/>
			<line class="st2" x1="24" y1="4" x2="24" y2="124"/>
		</g>
		<circle class="st2" cx="64" cy="64" r="64"/>
		<circle class="st2" cx="64" cy="64" r="40"/>
		<line class="st2" x1="4" y1="124" x2="124" y2="4"/>
		<line class="st2" x1="4" y1="4" x2="124" y2="124"/>
	</g>
</g>
<g id="Capa_2" class="st0">
	
		<image style="display:inline;overflow:visible;opacity:0.5;" width="512" height="512" xlink:href="bars.png"  transform="matrix(0.2344 0 0 0.2344 4 4)">
	</image>
</g>
<g id="Capa_3">
	<path class="st3" d="M112.8,41.7H15.2C9,41.7,4,36.7,4,30.5v0c0-6.2,5-11.2,11.2-11.2h97.6c6.2,0,11.2,5,11.2,11.2v0
		C124,36.7,119,41.7,112.8,41.7z"/>
	<path class="st3" d="M112.8,75.2H15.2C9,75.2,4,70.2,4,64v0c0-6.2,5-11.2,11.2-11.2h97.6c6.2,0,11.2,5,11.2,11.2v0
		C124,70.2,119,75.2,112.8,75.2z"/>
	<path class="st3" d="M112.8,108.7H15.2C9,108.7,4,103.7,4,97.5v0c0-6.2,5-11.2,11.2-11.2h97.6c6.2,0,11.2,5,11.2,11.2v0
		C124,103.7,119,108.7,112.8,108.7z"/>
</g>
</svg>
