<?xml version="1.0" encoding="utf-8"?>
<!-- Generator: Adobe Illustrator 26.0.3, SVG Export Plug-In . SVG Version: 6.00 Build 0)  -->
<svg version="1.1" id="Capa_1" xmlns="http://www.w3.org/2000/svg" xmlns:xlink="http://www.w3.org/1999/xlink" x="0px" y="0px"
	 viewBox="0 0 128 128" style="enable-background:new 0 0 128 128;" xml:space="preserve">
<style type="text/css">
	.st0{display:none;}
	.st1{display:inline;}
	.st2{fill:none;stroke:#49A5DD;stroke-miterlimit:10;}
	.st3{fill:#0575E6;}
	.st4{fill:#FFFFFF;}
</style>
<g id="Capa_1_00000021805558038216756340000016632895027812964240_" class="st0">
	<g id="Capa_1_00000072270827443837070300000001451375812884718990_" class="st1">
		<g>
			<rect x="4" y="4" class="st2" width="120" height="120"/>
			<line class="st2" x1="4" y1="104" x2="124" y2="104"/>
			<line class="st2" x1="4" y1="84" x2="124" y2="84"/>
			<line class="st2" x1="4" y1="64" x2="124" y2="64"/>
			<line class="st2" x1="4" y1="44" x2="124" y2="44"/>
			<line class="st2" x1="4" y1="24" x2="124" y2="24"/>
			<line class="st2" x1="104" y1="4" x2="104" y2="124"/>
			<line class="st2" x1="84" y1="4" x2="84" y2="124"/>
			<line class="st2" x1="64" y1="4" x2="64" y2="124"/>
			<line class="st2" x1="44" y1="4" x2="44" y2="124"/>
			<line class="st2" x1="24" y1="4" x2="24" y2="124"/>
		</g>
		<circle class="st2" cx="64" cy="64" r="64"/>
		<circle class="st2" cx="64" cy="64" r="40"/>
		<line class="st2" x1="4" y1="124" x2="124" y2="4"/>
		<line class="st2" x1="4" y1="4" x2="124" y2="124"/>
	</g>
</g>
<g id="Capa_2_00000137840783836519939320000017922708653539964839_">
	<path class="st3" d="M116,122.2H11.9l49.6-33.6c0.6-0.4,1.3-0.6,2.1-0.6l0,0c1.3,0,2.5,0.4,3.6,1.1L116,122.2z"/>
	<path class="st3" d="M54.1,87.5L5.7,120.1V47.4l0,0c17.2,9.8,32.8,22.3,46,37l2.4,2.7C54.1,87.1,54.1,87.5,54.1,87.5z"/>
	<path class="st3" d="M73.8,87.5v-0.4V87c13.6-15.2,29.3-28.3,46.8-38.6l1.6-0.9v72.9l0,0"/>
	<path class="st3" d="M104,51.5l-1.9,1.5c-12,9.3-22.9,19.9-32.4,31.7l0,0l-0.3-0.2c-3.2-2.5-7.7-2.4-10.8,0.2l0,0l0,0
		c-9.9-11.8-21-22.6-33.3-32l-1.3-1V21.6l80-0.2V51.5z"/>
	<polygon class="st3" points="18.5,42.3 18.6,48.3 13.3,45.4 8.1,42.4 13.3,39.3 18.4,36.2 	"/>
	<polygon class="st3" points="109.6,42.2 109.6,36.1 114.8,39.1 120.1,42.1 114.9,45.1 109.7,48.2 	"/>
	<polygon class="st3" points="64.1,15.9 48.1,16 56.1,10.8 64,5.5 72.1,10.7 80.1,15.9 	"/>
	<path class="st4" d="M98.8,31.1h-69c-1.1,0-2-0.9-2-2l0,0c0-1.1,0.9-2,2-2h69c1.1,0,2,0.9,2,2l0,0C100.8,30.2,99.9,31.1,98.8,31.1z
		"/>
	<path class="st4" d="M68.3,39h-38c-1.1,0-2-0.9-2-2l0,0c0-1.1,0.9-2,2-2h38.1c1.1,0,2,0.9,2,2l0,0C70.3,38.2,69.4,39,68.3,39z"/>
	<path class="st4" d="M51.1,47.8H29.9c-1.1,0-2-0.9-2-2l0,0c0-1.1,0.9-2,2-2h21.3c1.1,0,2,0.9,2,2l0,0
		C53.1,46.9,52.2,47.8,51.1,47.8z"/>
	<path class="st4" d="M95.6,39h-17c-1.1,0-2-0.9-2-2l0,0c0-1.1,0.9-2,2-2h17c1.1,0,2,0.9,2,2l0,0C97.6,38.2,96.7,39,95.6,39z"/>
	<path class="st4" d="M96.8,47.8H59.1c-1.1,0-2-0.9-2-2l0,0c0-1.1,0.9-2,2-2h37.8c1.1,0,2,0.9,2,2l0,0
		C98.8,46.9,97.9,47.8,96.8,47.8z"/>
	<path class="st4" d="M89.9,55.8H38.2c-1.1,0-2-0.9-2-2l0,0c0-1.1,0.9-2,2-2h51.7c1.1,0,2,0.9,2,2l0,0C91.9,54.9,91,55.8,89.9,55.8z
		"/>
	<path class="st4" d="M79.2,62.9H48.9c-1.1,0-2-0.9-2-2l0,0c0-1.1,0.9-2,2-2h30.2c1.1,0,2,0.9,2,2l0,0C81.2,62,80.3,62.9,79.2,62.9z
		"/>
</g>
<g id="Capa_3" class="st0">
	
		<image style="display:inline;overflow:visible;opacity:0.5;enable-background:new    ;" width="512" height="512" xlink:href="gmail.png"  transform="matrix(0.2641 0 0 0.2641 -3.6176 -3.6176)">
	</image>
</g>
</svg>
