<?xml version="1.0" encoding="utf-8"?>
<!-- Generator: Adobe Illustrator 26.0.3, SVG Export Plug-In . SVG Version: 6.00 Build 0)  -->
<svg version="1.1" id="Capa_1" xmlns="http://www.w3.org/2000/svg" xmlns:xlink="http://www.w3.org/1999/xlink" x="0px" y="0px"
	 viewBox="0 0 128 128" style="enable-background:new 0 0 128 128;" xml:space="preserve">
<style type="text/css">
	.st0{display:none;}
	.st1{display:inline;}
	.st2{fill:none;stroke:#49A5DD;stroke-miterlimit:10;}
	.st3{display:inline;fill:none;stroke:#49A5DD;stroke-miterlimit:10;}
	.st4{fill:#0575E6;}
</style>
<g id="Capa_1_00000093893345675018411590000011886360181485103756_" class="st0">
	<g class="st1">
		<rect x="4" y="4" class="st2" width="120" height="120"/>
		<line class="st2" x1="4" y1="104" x2="124" y2="104"/>
		<line class="st2" x1="4" y1="84" x2="124" y2="84"/>
		<line class="st2" x1="4" y1="64" x2="124" y2="64"/>
		<line class="st2" x1="4" y1="44" x2="124" y2="44"/>
		<line class="st2" x1="4" y1="24" x2="124" y2="24"/>
		<line class="st2" x1="104" y1="4" x2="104" y2="124"/>
		<line class="st2" x1="84" y1="4" x2="84" y2="124"/>
		<line class="st2" x1="64" y1="4" x2="64" y2="124"/>
		<line class="st2" x1="44" y1="4" x2="44" y2="124"/>
		<line class="st2" x1="24" y1="4" x2="24" y2="124"/>
	</g>
	<circle class="st3" cx="64" cy="64" r="64"/>
	<circle class="st3" cx="64" cy="64" r="40"/>
	<line class="st3" x1="4" y1="124" x2="124" y2="4"/>
	<line class="st3" x1="4" y1="4" x2="124" y2="124"/>
</g>
<g id="Capa_2_00000155106324642993034680000001829352005362419899_" class="st0">
	
		<image style="display:inline;overflow:visible;opacity:0.5;enable-background:new    ;" width="650" height="607" xlink:href="meta.png"  transform="matrix(0.2534 0 0 0.2534 -18.3611 -25.2353)">
	</image>
</g>
<g id="Capa_3">
	<path class="st4" d="M63.6,70.3l7.6,0.1c1.2,0,2.1-2.1,2-1l-0.8,4.8c-0.1,0.4-0.2,0.8-0.3,1.2C72,75.6,72,75.8,71.9,76l-1.2,4.3
		c-0.2,0.9-0.4,1.7-0.4,2.6c-0.1,1.8,0,3.9,0,5.2l0.1,5.9c0,1.7-0.1,3.3-0.4,5c-0.5,3-1.3,7.7-1.3,8.1l-0.2,3.7
		c-0.1,1.1-0.2,2.2-0.3,3.3v0.1c-0.2,1.7-0.3,3.4-0.3,5.1l0,0v2.3c-0.1,1.2-1.5,2-2.7,1.5l-3.4-1.4c-0.7-0.3-1.2-1-1.2-1.7l0,0
		c0.1-1.3,0.5-2.6,1.1-3.7l2.3-4.4c0.4-1.8,0.4-3.2,0.3-4.7L64,99.3l-0.2-6.4c0-0.8,0-1.6,0-2.5c0.1-1.9,0.1-1.1-0.1-4.3l-0.2-2
		c-0.1-0.6-0.1-1.2-0.1-1.8c0-0.8-0.1-1.6-0.1-2.3L63,75.2c0-0.3,0-0.5,0-0.8l-0.2-3.6C62.7,69.8,62.5,70.3,63.6,70.3z"/>
	<path class="st4" d="M54.9,70.3L54.9,70.3c1.9,0,6.3-2.2,7.2,0.2l-3.7,16.9c-0.9,2.6-1.6,3.5-3.5,3.5l0,0c-1.9,0-3.5-1.6-3.5-3.5
		l0.1-16.2C51.5,69.3,53,70.3,54.9,70.3z"/>
	<path class="st4" d="M74.3,68.5l-1.5,1.1c0,0-0.1,0-0.1,0.1l-2.5,1.6c-0.3,0.2-0.6,0.2-0.9,0.2L63.8,71c-0.6,0-1.1-0.4-1.3-1
		l-0.2-0.7l-0.2,1.2L52.4,71c-0.5,0-0.9-0.2-1.2-0.5l0,0c-0.2-0.3-0.4-0.7-0.3-1.1l0.8-9.9c0.1-0.7,0.7-1.3,1.4-1.3h19.8
		c0.8,0,1.4,0.6,1.4,1.3v2.6c0,0.6,0,1.1,0.1,1.7l0.5,3.3C74.9,67.7,74.7,68.2,74.3,68.5z"/>
	<path class="st4" d="M53.7,32.5l18.6,1c1.1-0.1,1.8,4.6,2,5.7c0.1,0.8,0.1,1.3,0,1.7l-0.2,1.4c-0.2,0.9,0,2.5-0.2,4.2l-0.4,3.9
		c-0.1,1.1-0.1,2.1,0.1,3.2l0.1,0.9c0.1,0.5,0.5,3.6,0.5,4.1c0,0.6-0.2,1.8-0.6,3.1c-0.8,3.4-4.5,5.2-7.7,3.9l-10.3-4.4
		c-0.6-0.3-1.3-0.5-2-0.4l0,0c-1.2,0-1.9-0.1-1.9-1.4v-3.5c0-0.2,0-0.4,0-0.6c0.1-0.9,0.8-1.6,0.7-3.9l-0.1-2.2c0-0.3-0.1-0.7-0.1-1
		c-0.1-0.7-0.1-1.3-0.1-1.8c0-0.8-0.1-1.6-0.3-2.3l0,0c-0.2-0.5-0.3-1-0.3-1.5C51.5,41.1,52.5,32.6,53.7,32.5z"/>
	<path class="st4" d="M56.3,23.8l1.2-1c0.3-0.1,0.6-0.2,0.8-0.2l7.7-0.2c0.3,0,0.5,0.1,0.7,0.3c2.5,2.4,3.7,1.5,5.2,1l1.7-0.8
		c1.5,0,1.8,1,2.2,2.4l0.6,2.4c0.3,1.1-0.1,2.2-0.9,2.9l0,0c-0.4,0.4-0.7,0.9-0.9,1.5L74,35.2c-0.1,0.4-0.1,0.8-0.1,1.2v0.1
		c0.2,1.7-0.9,3.3-2.5,3.4L55.2,42c-2,0.4-3.6-1-3.7-2.9l-0.1-2.9c0-0.2,0-0.4-0.1-0.6l-0.5-3c-0.1-0.7-0.4-1.3-0.9-1.9l0,0
		C49.3,30,49,29.1,49,28.1v-1.8c0-1.7-0.3-3,1.4-3.1l2.3,0.8C53.8,24.4,55.4,24.3,56.3,23.8z"/>
	<path class="st4" d="M82.2,29.3L76,29.6l-2-0.4c-0.8,0-1.4-0.7-1.3-1.4l0.1-3.5c0-0.8,0.7-1.4,1.4-1.3l1.1,0.1
		c0.9,0.1,1.9,0.3,2.8,0.6l1,0.3c0.6,0.2,1.2,0.2,1.9,0.2c1.8-0.2,5.2-0.6,5.2,0l1.2,4.2C87.2,29,83,29.3,82.2,29.3z"/>
	<path class="st4" d="M105.3,13.4l-1.2,1c-0.7,0.8-1.3,1.2-2.1,1.8l-1.1,0.8l-4.6,2.5l-4.1,2.4l-3,1.6l-3.9,0.2
		c-0.4,0.2,0.5,0.7,0.6,1.1l0.9,3.8l0.4-0.2c0.5-0.3,1-0.4,1.6-0.4h2.3c0.4,0,0.9-0.1,1.3-0.3l1.3-0.5c0.3-0.1,0.6-0.3,0.8-0.5
		l3.1-2.7c0.4-0.4,0.9-0.7,1.3-1l5.1-3.6l0.8-0.6c1.1-0.8,1.5-1.4,2.1-1.5c0.2,0,0.3-0.2,0.2-0.3l-0.6-1.6
		C106.1,14.9,105.7,13.2,105.3,13.4z"/>
	<path class="st4" d="M109.3,8.3c-0.2,0.2,0.9,0.9,1,0.7c0.5-0.6,1.8-2.2,2.2-3.1c0.2-0.5-0.4-1.3-0.8-0.9
		C111,5.7,110.5,7.1,109.3,8.3z"/>
	<path class="st4" d="M105.4,10.7c0,0.3,2,0.9,2,0.6c0-0.9,0-3.6-0.2-4.4c-0.2-1-1.7-0.9-1.5-0.2C106.2,8.7,105.7,8.9,105.4,10.7z"
		/>
	<path class="st4" d="M110.2,9.7c-0.3,0.2,0.6,1.1,0.9,0.8c0.7-0.7,2.7-2.8,3.4-3.8c0.4-0.6,0-1.5-0.6-1
		C112.9,6.6,111.9,8.3,110.2,9.7z"/>
	<path class="st4" d="M110.7,11.6c-0.3,0.2,0.5,1.1,0.8,0.8c0.8-0.7,3.1-2.8,4-3.9c0.5-0.6,0.2-1.5-0.5-1
		C113.8,8.4,112.6,10.2,110.7,11.6z"/>
	<path class="st4" d="M110.4,13.5c-0.4,0.2,0.2,1.1,0.6,0.9c1-0.6,3.6-2.2,4.6-3.1c0.6-0.5,0.5-1.4-0.2-1.1
		C114.1,11,112.5,12.4,110.4,13.5z"/>
	<path class="st4" d="M110.7,9.2"/>
	<line class="st4" x1="105.8" y1="10.7" x2="107.1" y2="10.7"/>
	<path class="st4" d="M106.4,16l0.6,1c0.6,0.1,4.2-2.1,4.2-2.7l1.1-1.8c0,0-0.2-0.6-0.4-0.6c-0.5-0.1-0.3-0.8-0.6-1.2
		c-0.4-0.5-0.6-1-0.8-1.6c-0.3-0.6-0.9-1-1-1l-1.7,2.1c-0.2,0.2-0.5,0.3-0.7,0.2L106,9.9c-0.3,0-0.5,0-0.3,0l-0.2,0.7
		c-0.2,0.8-0.2,1.4-0.3,1.9l-0.1,0.7c0,0.3,0,0.5,0.1,0.8l0.5,1.4C105.8,15.7,106,16,106.4,16z"/>
	<path class="st4" d="M41.8,30l5.8,0.3l1.9-0.4c0.7,0,1.3-0.7,1.3-1.4L50.7,25c0-0.8-0.6-1.4-1.4-1.3l-1,0.1
		c-0.9,0.1-1.7,0.3-2.6,0.6l-0.9,0.3c-0.6,0.2-1.2,0.2-1.7,0.2c-1.7-0.2-4.9-0.6-4.9,0l-1.1,4.2C37.2,29.7,41.1,30,41.8,30z"/>
	<path class="st4" d="M20.2,14.2l1.2,1c0.6,0.8,1.2,1.2,1.9,1.8l1,0.8l4.3,2.5l3.9,2.4l2.9,1.6l3.7,0.2c0.4,0.2-0.5,0.7-0.6,1.1
		l-0.9,3.8l-0.3-0.2c-0.5-0.3-1-0.4-1.5-0.4h-2.1c-0.4,0-0.8-0.1-1.2-0.3L31.3,28c-0.3-0.1-0.5-0.3-0.8-0.5l-2.9-2.7
		c-0.4-0.4-0.8-0.7-1.2-1L21.5,20l-0.7-0.6c-1-0.8-1.4-1.4-2-1.5c-0.2,0-0.3-0.2-0.2-0.3l0.5-1.6C19.4,15.6,19.7,13.9,20.2,14.2z"/>
	<path class="st4" d="M16.3,9c0.2,0.2-0.8,0.9-1,0.7c-0.5-0.6-1.7-2.2-2-3.1c-0.2-0.5,0.4-1.3,0.8-0.9C14.8,6.4,15.3,7.8,16.3,9z"/>
	<path class="st4" d="M20,11.5c0,0.3-1.8,0.9-1.9,0.6c0-0.9,0-3.6,0.2-4.4c0.2-1,1.6-0.9,1.4-0.2C19.3,9.4,19.8,9.6,20,11.5z"/>
	<path class="st4" d="M15.5,10.4c0.3,0.2-0.6,1.1-0.8,0.8c-0.7-0.7-2.5-2.8-3.2-3.8c-0.4-0.6,0-1.5,0.5-1C13,7.3,14,9,15.5,10.4z"/>
	<path class="st4" d="M15.1,12.3c0.3,0.2-0.5,1.1-0.8,0.8c-0.8-0.7-2.9-2.8-3.7-3.9c-0.5-0.6-0.2-1.5,0.4-1
		C12.1,9.1,13.3,10.9,15.1,12.3z"/>
	<path class="st4" d="M15.3,14.2c0.3,0.2-0.2,1.1-0.6,0.9c-0.9-0.6-3.3-2.2-4.3-3.1c-0.6-0.5-0.4-1.4,0.2-1.1
		C11.9,11.7,13.3,13.1,15.3,14.2z"/>
	<path class="st4" d="M15.1,9.9"/>
	<line class="st4" x1="19.6" y1="11.4" x2="18.4" y2="11.4"/>
	<path class="st4" d="M19.1,16.7l-0.6,1c-0.6,0.1-3.9-2.1-3.9-2.7l-1.1-1.8c0,0,0.2-0.6,0.4-0.6c0.4-0.1,0.3-0.8,0.6-1.2
		c0.4-0.5,0.6-1,0.7-1.6c0.2-0.6,0.9-1,1-1l1.6,2.1c0.2,0.2,0.4,0.3,0.7,0.2l1.1-0.5c0.3,0,0.5,0,0.2,0l0.2,0.7
		c0.2,0.8,0.2,1.4,0.3,1.9l0.1,0.7c0,0.3,0,0.5-0.1,0.8l-0.5,1.4C19.7,16.5,19.4,16.7,19.1,16.7z"/>
	<path class="st4" d="M56.1,19.5"/>
	<path class="st4" d="M57.5,20.2c-0.2-0.2-1-0.1-1.7-1.9c0-0.1-0.3-1.8,0.2-1.7c0.6,0.1-0.3-1.2-0.3-1.9c-0.2-2.3,1.6-4,2-4.5
		l0.6-0.5c2.2-1.8,5.6-0.6,5.8-0.2c0.4,0.2,0.5,0.5,0.6,0.6c1.2,1.2,2.1,2.7,2.6,4.4c0.1,0.3,0.1,0.5,0,0.8l-0.1,0.6
		c0.3-0.1,1,0.3,1,0.6l-0.1,1.2c0,0.2-0.1,0.6-0.3,0.8l-0.4,0.3c-0.3,0.4-0.4,0.3-0.5,0.8L66.8,20c-0.2,1-0.3,2-0.3,3.1v0.6
		l-6.6,0.7c-1,0.1-1.8-0.6-1.8-1.6l0,0c-0.1-0.8-0.3-1.5-0.5-2.3L57.5,20.2z"/>
	<path class="st4" d="M21,50.8c0,0,0.1,0,0.1,0.1"/>
	<path class="st4" d="M20.2,52.7h-0.1"/>
	<g>
		<path class="st4" d="M137.5,59.9c-49.6-17.6-99.3,17.6-148.9,0c0-2.9,0-5.9,0-8.8c49.6,17.6,99.3-17.6,148.9,0
			C137.5,54.1,137.5,57,137.5,59.9z"/>
	</g>
</g>
</svg>
