<?xml version="1.0" encoding="utf-8"?>
<!-- Generator: Adobe Illustrator 26.0.3, SVG Export Plug-In . SVG Version: 6.00 Build 0)  -->
<svg version="1.1" id="Capa_1" xmlns="http://www.w3.org/2000/svg" xmlns:xlink="http://www.w3.org/1999/xlink" x="0px" y="0px"
	 viewBox="0 0 128 128" style="enable-background:new 0 0 128 128;" xml:space="preserve">
<style type="text/css">
	.st0{display:none;}
	.st1{display:inline;}
	.st2{fill:none;stroke:#49A5DD;stroke-miterlimit:10;}
	.st3{fill:#0575E6;stroke:#0575E6;stroke-miterlimit:10;}
	.st4{fill:none;stroke:url(#SVGID_1_);stroke-width:1.5;stroke-miterlimit:10;}
	.st5{fill:#FFFFFF;}
	.st6{fill:#F9F9F9;}
</style>
<g id="Capa_1_00000150071028383177709920000003149879675485816995_" class="st0">
	<g id="Capa_1_00000072270827443837070300000001451375812884718990_" class="st1">
		<g>
			<rect x="4" y="4" class="st2" width="120" height="120"/>
			<line class="st2" x1="4" y1="104" x2="124" y2="104"/>
			<line class="st2" x1="4" y1="84" x2="124" y2="84"/>
			<line class="st2" x1="4" y1="64" x2="124" y2="64"/>
			<line class="st2" x1="4" y1="44" x2="124" y2="44"/>
			<line class="st2" x1="4" y1="24" x2="124" y2="24"/>
			<line class="st2" x1="104" y1="4" x2="104" y2="124"/>
			<line class="st2" x1="84" y1="4" x2="84" y2="124"/>
			<line class="st2" x1="64" y1="4" x2="64" y2="124"/>
			<line class="st2" x1="44" y1="4" x2="44" y2="124"/>
			<line class="st2" x1="24" y1="4" x2="24" y2="124"/>
		</g>
		<circle class="st2" cx="64" cy="64" r="64"/>
		<circle class="st2" cx="64" cy="64" r="40"/>
		<line class="st2" x1="4" y1="124" x2="124" y2="4"/>
		<line class="st2" x1="4" y1="4" x2="124" y2="124"/>
	</g>
</g>
<g id="Capa_2_00000077319255774088261280000005544974237518729867_" class="st0">
	
		<image style="display:inline;overflow:visible;opacity:0.5;enable-background:new    ;" width="1000" height="1000" xlink:href="reloj.jpg"  transform="matrix(0.2246 0 0 0.2246 -48.2941 -48.2941)">
	</image>
</g>
<g id="Capa_3">
	<circle class="st3" cx="64" cy="64" r="57.8"/>
	
		<linearGradient id="SVGID_1_" gradientUnits="userSpaceOnUse" x1="13.65" y1="64" x2="114.35" y2="64" gradientTransform="matrix(1 0 0 -1 0 128)">
		<stop  offset="1" style="stop-color:#FFFFFF"/>
		<stop  offset="1" style="stop-color:#282826"/>
		<stop  offset="1" style="stop-color:#000000"/>
	</linearGradient>
	<circle class="st4" cx="64" cy="64" r="49.6"/>
	<path class="st5" d="M63.8,25L63.8,25c-0.6,0-1.1-0.5-1.1-1.1v-5c0-0.6,0.5-1.1,1.1-1.1l0,0c0.6,0,1.1,0.5,1.1,1.1v5
		C64.9,24.5,64.4,25,63.8,25z"/>
	<path class="st5" d="M63.8,110.4L63.8,110.4c-0.6,0-1.1-0.5-1.1-1.1v-5c0-0.6,0.5-1.1,1.1-1.1l0,0c0.6,0,1.1,0.5,1.1,1.1v5
		C64.9,109.9,64.4,110.4,63.8,110.4z"/>
	<path class="st5" d="M25,64L25,64c0,0.6-0.5,1.1-1.1,1.1h-5c-0.6,0-1.1-0.5-1.1-1.1l0,0c0-0.6,0.5-1.1,1.1-1.1h5
		C24.5,62.9,25,63.4,25,64z"/>
	<path class="st5" d="M26.6,42.4L26.6,42.4c-0.2,0.3-0.5,0.4-0.8,0.2l-2.4-1.4c-0.3-0.2-0.4-0.5-0.2-0.8l0,0
		c0.2-0.3,0.5-0.4,0.8-0.2l2.4,1.4C26.6,41.7,26.7,42.1,26.6,42.4z"/>
	<path class="st5" d="M42.6,26.7L42.6,26.7c-0.3,0.2-0.6,0.1-0.8-0.2l-1.4-2.4c-0.2-0.3-0.1-0.6,0.2-0.8l0,0
		c0.3-0.2,0.6-0.1,0.8,0.2l1.4,2.4C43,26.1,42.9,26.5,42.6,26.7z"/>
	<path class="st5" d="M104.7,40.9L104.7,40.9c0.2,0.3,0.1,0.6-0.2,0.8l-2.4,1.4c-0.3,0.2-0.6,0.1-0.8-0.2l0,0
		c-0.2-0.3-0.1-0.6,0.2-0.8l2.4-1.4C104.1,40.5,104.5,40.6,104.7,40.9z"/>
	<path class="st5" d="M87.4,23.3L87.4,23.3c0.3,0.2,0.4,0.5,0.2,0.8l-1.5,2.3c-0.2,0.3-0.5,0.4-0.8,0.2l0,0C85,26.4,85,26,85.1,25.8
		l1.5-2.3C86.8,23.2,87.2,23.1,87.4,23.3z"/>
	<path class="st5" d="M87.3,104.1L87.3,104.1c-0.3,0.2-0.6,0.1-0.8-0.1l-1.6-2.2c-0.2-0.3-0.1-0.6,0.1-0.8l0,0
		c0.3-0.2,0.6-0.1,0.8,0.1l1.6,2.2C87.6,103.6,87.5,103.9,87.3,104.1z"/>
	<path class="st5" d="M104.2,87.4L104.2,87.4c-0.2,0.3-0.5,0.4-0.8,0.2l-2.4-1.4c-0.3-0.2-0.4-0.5-0.2-0.8l0,0
		c0.2-0.3,0.5-0.4,0.8-0.2l2.4,1.4C104.3,86.8,104.4,87.1,104.2,87.4z"/>
	<path class="st5" d="M24.4,88L24.4,88c-0.2-0.3-0.2-0.6,0.1-0.8l2.1-1.7c0.3-0.2,0.6-0.2,0.8,0.1l0,0c0.2,0.3,0.2,0.6-0.1,0.8
		l-2.1,1.7C25,88.3,24.6,88.3,24.4,88z"/>
	<path class="st5" d="M41.4,104.2L41.4,104.2c-0.3-0.1-0.4-0.5-0.3-0.8l1.2-2.4c0.1-0.3,0.5-0.4,0.8-0.3l0,0
		c0.3,0.1,0.4,0.5,0.3,0.8l-1.2,2.4C42,104.2,41.7,104.3,41.4,104.2z"/>
	<path class="st5" d="M111.2,64L111.2,64c0,0.6-0.5,1.1-1.1,1.1h-5c-0.6,0-1.1-0.5-1.1-1.1l0,0c0-0.6,0.5-1.1,1.1-1.1h5
		C110.7,62.9,111.2,63.4,111.2,64z"/>
	<circle class="st6" cx="64" cy="64" r="4"/>
	<path class="st6" d="M64.5,39.2h-1c-0.7,0-1.2,0.6-1.2,1.2v26c0,0.7,0.6,1.2,1.2,1.2h1c0.7,0,1.2-0.6,1.2-1.2v-26
		C65.7,39.8,65.2,39.2,64.5,39.2z"/>
	<path class="st6" d="M45.9,31.3L45,31.8c-0.6,0.3-0.8,1.1-0.5,1.7l19,32.8c0.3,0.6,1.1,0.8,1.7,0.5l0.9-0.5
		c0.6-0.3,0.8-1.1,0.5-1.7l-19-32.8C47.2,31.2,46.5,31,45.9,31.3z"/>
	
		<rect x="29.3" y="76.8" transform="matrix(0.7558 -0.6548 0.6548 0.7558 -38.3837 51.2088)" class="st6" width="40.4" height="0.5"/>
</g>
</svg>
