<?xml version="1.0" encoding="utf-8"?>
<!-- Generator: Adobe Illustrator 26.0.3, SVG Export Plug-In . SVG Version: 6.00 Build 0)  -->
<svg version="1.1" id="Capa_1" xmlns="http://www.w3.org/2000/svg" xmlns:xlink="http://www.w3.org/1999/xlink" x="0px" y="0px"
	 viewBox="0 0 128 128" style="enable-background:new 0 0 128 128;" xml:space="preserve">
<style type="text/css">
	.st0{display:none;}
	.st1{display:inline;}
	.st2{fill:none;stroke:#49A5DD;stroke-miterlimit:10;}
	.st3{fill:#0575E6;}
	.st4{fill:#FFFFFF;}
</style>
<g id="Capa_1_00000084520244410668084450000008154742543247938725_" class="st0">
	<g id="Capa_1_00000072270827443837070300000001451375812884718990_" class="st1">
		<g>
			<rect x="4" y="4" class="st2" width="120" height="120"/>
			<line class="st2" x1="4" y1="104" x2="124" y2="104"/>
			<line class="st2" x1="4" y1="84" x2="124" y2="84"/>
			<line class="st2" x1="4" y1="64" x2="124" y2="64"/>
			<line class="st2" x1="4" y1="44" x2="124" y2="44"/>
			<line class="st2" x1="4" y1="24" x2="124" y2="24"/>
			<line class="st2" x1="104" y1="4" x2="104" y2="124"/>
			<line class="st2" x1="84" y1="4" x2="84" y2="124"/>
			<line class="st2" x1="64" y1="4" x2="64" y2="124"/>
			<line class="st2" x1="44" y1="4" x2="44" y2="124"/>
			<line class="st2" x1="24" y1="4" x2="24" y2="124"/>
		</g>
		<circle class="st2" cx="64" cy="64" r="64"/>
		<circle class="st2" cx="64" cy="64" r="40"/>
		<line class="st2" x1="4" y1="124" x2="124" y2="4"/>
		<line class="st2" x1="4" y1="4" x2="124" y2="124"/>
	</g>
</g>
<g id="Capa_2_00000001628828495608955020000008823222593236359322_" class="st0">
	
		<image style="display:inline;overflow:visible;opacity:0.5;enable-background:new    ;" width="512" height="512" xlink:href="telefono1.png"  transform="matrix(0.2623 0 0 0.2623 -3.1602 -1.8498)">
	</image>
</g>
<g id="Capa_3_00000118370278652226808510000013435622428916508033_">
	<path class="st3" d="M123,112.5l-3.5,3L91.6,87.2l2.9-3c3.2-3.3,8.5-3.2,11.6,0.2l17.7,18C126.5,105.3,126.2,110,123,112.5z"/>
	<path class="st3" d="M45.3,34.7l-3.5,3L13.9,9.4l2.9-3c3.2-3.3,8.5-3.2,11.6,0.2l17.7,18C48.9,27.5,48.5,32.2,45.3,34.7z"/>
	<path class="st3" d="M118.1,57.2H83.4l-13,11.3c-1.3,1.1-3.2,1-4.3-0.2l0,0v-11h-1.3c-4.1,0-7.4-3.3-7.4-7.4V17.7
		c0-3.9,3.2-7.1,7.1-7.1h53.9c3.5,0,6.3,2.8,6.3,6.3v33.6C124.7,54.2,121.7,57.2,118.1,57.2z"/>
	<path class="st4" d="M95.6,46.3h-25c-1.1,0-2-0.9-2-2l0,0c0-1.1,0.9-2,2-2h25c1.1,0,2,0.9,2,2l0,0C97.6,45.4,96.7,46.3,95.6,46.3z"
		/>
	<path class="st4" d="M75,35.9h-4.2c-1.1,0-2-0.9-2-2l0,0c0-1.1,0.9-2,2-2H75c1.1,0,2,0.9,2,2l0,0C77,35,76.1,35.9,75,35.9z"/>
	<path class="st4" d="M113.3,35.9H82.8c-1.1,0-2-0.9-2-2l0,0c0-1.1,0.9-2,2-2h30.5c1.1,0,2,0.9,2,2l0,0
		C115.3,35,114.4,35.9,113.3,35.9z"/>
	<path class="st4" d="M112.9,24.9H79.1c-1.1,0-2-0.9-2-2l0,0c0-1.1,0.9-2,2-2h33.8c1.1,0,2,0.9,2,2l0,0
		C114.9,23.9,114,24.9,112.9,24.9z"/>
	<path class="st3" d="M12.8,60.9l-2.1-3.3C2,43.9,2,26.3,10.9,12.6l0,0L39,41.1L12.8,60.9z"/>
	<path class="st3" d="M116.4,118.4l-3.2,2.5c-13.1,10.3-26.4,5-41.2-2.6l0.6-0.9l15.7-27.1L116.4,118.4z"/>
	<path class="st3" d="M72.2,118.3l-3.1-2c-22.5-14.4-41.7-33.4-56.5-55.7l0,0L37.2,42c0.1,0-0.3,0.5-0.9,1.1
		c-2.3,2.4-2.4,6.2-0.3,8.8l0.8,0.9c0.8,0.9,1.6,1.9,2.3,2.9c1.9,2.7,5,6.7,6.6,8.4C56.3,75.8,76,94.7,82.4,95
		c1.6,0.1,2.6-1.1,3.7-2.3l2.4-2.5L72.2,118.3z"/>
</g>
</svg>
